<svg width="173" height="156" viewBox="0 0 173 156" fill="none" xmlns="http://www.w3.org/2000/svg">
    <path fill-rule="evenodd" clip-rule="evenodd"
        d="M127.805 90.5402C118.354 71.371 112.906 64.907 112.128 64.0154L112.35 73.2656C112.35 75.2717 113.129 77.2778 114.574 78.7266C142.926 111.047 112.461 118.625 112.461 118.625C120.8 119.071 135.699 106.477 127.805 90.5402Z"
        fill="url(#paint0_linear_121_4374)" />
    <path fill-rule="evenodd" clip-rule="evenodd"
        d="M107.236 65.9102L102.01 69.2536C101.788 69.4765 101.677 69.6994 101.677 70.0338C101.677 70.0338 102.677 89.8717 101.899 96.4472C101.121 103.134 96.8957 101.017 94.7833 98.2303C93.2267 96.2243 92.4484 93.7724 92.3372 91.2091L92.1149 74.9375L87.2228 78.0581C86.8893 78.281 86.6669 78.6153 86.6669 78.9497C86.6669 78.9497 91.3366 98.6761 86.5557 103.134C76.1045 113.053 79.9959 91.8778 79.8848 86.4168C79.5512 75.6062 65.6533 87.5312 58.76 94.2182C55.4245 97.4502 49.3094 101.685 45.0845 103.468C20.5131 113.61 14.0645 90.0946 14.0645 90.0946C14.6204 97.6731 17.3999 100.682 17.3999 100.682C40.8595 132.557 77.2164 79.1726 75.6598 91.3205C74.8815 97.4502 74.3256 101.239 74.4368 103.357C74.6591 105.475 75.1039 106.812 75.771 108.372C81.1078 120.632 89.3353 108.372 90.7807 103.803C91.003 103.134 91.7813 103.023 92.2261 103.468C109.904 120.854 107.68 78.3924 107.68 78.3924C107.68 78.3924 107.68 78.3924 107.68 78.5039L107.236 65.9102Z"
        fill="url(#paint1_linear_121_4374)" />
    <path fill-rule="evenodd" clip-rule="evenodd"
        d="M91.003 60.5605C91.003 60.5605 90.5583 65.13 93.1155 69.5879C93.8938 71.0367 92.3372 74.3802 87.7787 71.0367C87.7787 71.0367 81.2189 78.8382 82.2196 66.6902L83.4426 65.3528C83.4426 65.3528 83.5538 73.823 86.111 69.5879C87.1116 67.9162 87.2228 61.675 87.2228 61.675C87.2228 61.675 88.2235 72.597 90.2247 68.2505C91.003 66.3559 89.4465 65.7986 91.003 60.5605Z"
        fill="url(#paint2_linear_121_4374)" />
    <path fill-rule="evenodd" clip-rule="evenodd"
        d="M86.5559 50.6416L85.2217 52.7591L87.0006 61.0064L87.4453 51.1988L86.5559 50.6416Z"
        fill="url(#paint3_linear_121_4374)" />
    <path fill-rule="evenodd" clip-rule="evenodd"
        d="M172.5 117.511C168.942 106.7 165.273 96.1127 158.491 87.9769C151.931 79.8411 142.703 74.1572 133.141 68.6962C130.806 67.3588 128.36 66.0215 125.914 64.6841L118.576 60.6719C116.13 59.3345 113.684 58.1086 111.016 56.4369C108.459 54.8766 106.013 53.0934 103.789 51.0873C99.3416 47.1866 95.4502 42.5057 92.5595 37.4905C91.1141 35.0387 89.8911 32.5868 89.0016 29.912C89.0016 29.8006 88.8904 29.6891 88.8904 29.5777C87.8898 26.9029 87.0003 24.1167 86.6668 21.219C86.3332 24.1167 85.4438 26.7914 84.4431 29.5777C84.4431 29.6891 84.3319 29.8006 84.3319 29.912C83.3313 32.4753 82.1083 35.0387 80.7741 37.4905C77.7721 42.5057 73.9919 47.1866 69.5446 51.0873C67.3209 53.0934 64.8749 54.8766 62.3177 56.4369C59.6493 58.1086 57.2033 59.2231 54.7573 60.6719L47.4192 64.6841C44.9732 66.0215 42.5272 67.3588 40.1923 68.6962C30.6306 74.1572 21.4024 79.8411 14.8426 87.9769C7.72689 96.0012 4.05785 106.7 0.5 117.511C0.5 114.613 0.5 111.827 0.833549 108.929C1.05591 106.032 1.50065 103.245 2.16774 100.348C3.39076 94.6638 5.61442 88.9799 8.83872 83.8533C12.063 78.7266 16.3992 74.2687 20.9577 70.5909C23.2925 68.6962 25.6273 67.0245 28.0734 65.3528C30.5194 63.7925 32.9654 62.2322 35.5226 60.8948C40.5259 58.1086 45.6403 55.5453 50.7547 53.0934C53.3119 51.8674 55.9803 50.6415 58.2039 49.527C60.5388 48.4125 62.7624 47.0751 64.9861 45.6263C69.3222 42.6172 73.436 39.0508 76.9939 34.9272C78.5504 33.144 79.9958 31.3608 81.33 29.4662C79.2175 29.0204 77.8833 28.2403 77.8833 27.4601C77.8833 26.5685 79.4399 25.7884 81.7747 25.3426V16.0923L86.4444 9.96265L91.1141 16.0923V25.3426C93.4489 25.7884 95.0055 26.5685 95.0055 27.4601C95.0055 28.3517 93.6713 29.0204 91.5588 29.4662C92.893 31.3608 94.3384 33.144 95.895 34.9272C99.564 39.0508 103.567 42.6172 107.903 45.6263C110.126 47.0751 112.35 48.4125 114.685 49.6385C117.02 50.753 119.577 51.9789 122.134 53.2048C127.249 55.6567 132.363 58.22 137.366 61.0063C139.812 62.4551 142.369 63.9039 144.815 65.4642C147.261 67.1359 149.596 68.8077 151.931 70.7023C156.49 74.3801 160.826 78.8381 164.05 83.9647C167.274 89.0914 169.498 94.7753 170.721 100.459C171.388 103.357 171.833 106.143 172.055 109.041C172.389 111.827 172.5 114.613 172.5 117.511Z"
        fill="url(#paint4_linear_121_4374)" />
    <path
        d="M12.873 128.098L20.0205 148.159H17.0186L15.4461 143.574H7.44097L5.72557 148.159H2.72363L9.87111 128.098H12.873ZM14.3025 140.565L11.3006 132.397L8.44161 140.565H14.3025Z"
        fill="url(#paint5_linear_121_4374)" />
    <path d="M25.0238 145.15H33.7437V148.159H21.8789V128.098H24.8808V145.15H25.0238Z"
        fill="url(#paint6_linear_121_4374)" />
    <path d="M38.7469 145.15H47.4669V148.159H35.6021V128.098H38.604V145.15H38.7469Z"
        fill="url(#paint7_linear_121_4374)" />
    <path
        d="M58.6167 128.098L65.7642 148.159H62.7622L61.1898 143.574H53.1846L51.4692 148.159H48.4673L55.6148 128.098H58.6167ZM60.0462 140.565L57.0443 132.397L54.1853 140.565H60.0462Z"
        fill="url(#paint8_linear_121_4374)" />
    <path
        d="M77.772 128.098H80.7739V148.159H77.772V139.705H70.6245V148.159H67.6226V128.098H70.6245V136.553H77.772V128.098Z"
        fill="url(#paint9_linear_121_4374)" />
    <path
        d="M96.2127 133.83H99.0717V144.29C99.0717 144.864 98.9287 145.293 98.7858 145.723C98.6428 146.153 98.3569 146.583 97.9281 147.013C97.4992 147.299 97.2133 147.586 96.6415 147.873C96.0697 148.016 95.6409 148.159 95.0691 148.159H88.4934C87.9216 148.159 87.4928 148.016 87.0639 147.873C86.6351 147.729 86.2062 147.443 85.7774 147.013C85.4915 146.726 85.2056 146.296 84.9197 145.723C84.7767 145.293 84.6338 144.72 84.6338 144.29V133.83H87.4928V144.29C87.4928 144.577 87.6357 144.864 87.7787 145.007C87.9216 145.15 88.2075 145.293 88.4934 145.293H95.0691C95.355 145.293 95.6409 145.15 95.7838 145.007C96.0697 144.864 96.0698 144.577 96.0698 144.29V133.83H96.2127Z"
        fill="url(#paint10_linear_121_4374)" />
    <path
        d="M111.508 128.098L118.656 148.159H115.654L114.081 143.574H106.076L104.361 148.159H101.359L108.506 128.098H111.508ZM112.938 140.565L110.079 132.397L107.22 140.565H112.938Z"
        fill="url(#paint11_linear_121_4374)" />
    <path d="M123.659 145.15H132.379V148.159H120.514V128.098H123.516V145.15H123.659Z"
        fill="url(#paint12_linear_121_4374)" />
    <path
        d="M143.529 128.098L150.676 148.159H147.674L146.102 143.574H138.097L136.381 148.159H133.379L140.527 128.098H143.529ZM144.815 140.565L141.956 132.397L139.097 140.565H144.815Z"
        fill="url(#paint13_linear_121_4374)" />
    <path
        d="M166.973 128.098H169.975V148.159H166.973V136.553L162.827 148.159H159.825L155.68 136.553V148.159H152.678V128.098H155.68L161.398 143.86L166.973 128.098Z"
        fill="url(#paint14_linear_121_4374)" />
    <defs>
        <linearGradient id="paint0_linear_121_4374" x1="121.084" y1="64.0154" x2="121.084"
            y2="118.637" gradientUnits="userSpaceOnUse">
            <stop stop-color="#25B777" />
            <stop offset="1" stop-color="#76AA85" stop-opacity="0.7" />
        </linearGradient>
        <linearGradient id="paint1_linear_121_4374" x1="60.9174" y1="65.9102" x2="60.9174"
            y2="113.665" gradientUnits="userSpaceOnUse">
            <stop stop-color="#25B777" />
            <stop offset="1" stop-color="#76AA85" stop-opacity="0.7" />
        </linearGradient>
        <linearGradient id="paint2_linear_121_4374" x1="87.7114" y1="60.5605" x2="87.7114"
            y2="73.503" gradientUnits="userSpaceOnUse">
            <stop stop-color="#25B777" />
            <stop offset="1" stop-color="#76AA85" stop-opacity="0.7" />
        </linearGradient>
        <linearGradient id="paint3_linear_121_4374" x1="86.3335" y1="50.6416" x2="86.3335"
            y2="61.0064" gradientUnits="userSpaceOnUse">
            <stop stop-color="#25B777" />
            <stop offset="1" stop-color="#76AA85" stop-opacity="0.7" />
        </linearGradient>
        <linearGradient id="paint4_linear_121_4374" x1="86.5" y1="9.96265" x2="86.5" y2="117.511"
            gradientUnits="userSpaceOnUse">
            <stop stop-color="#25B777" />
            <stop offset="1" stop-color="#76AA85" stop-opacity="0.7" />
        </linearGradient>
        <linearGradient id="paint5_linear_121_4374" x1="11.3721" y1="128.098" x2="11.3721"
            y2="148.159" gradientUnits="userSpaceOnUse">
            <stop stop-color="#25B777" />
            <stop offset="1" stop-color="#76AA85" stop-opacity="0.7" />
        </linearGradient>
        <linearGradient id="paint6_linear_121_4374" x1="27.8113" y1="128.098" x2="27.8113"
            y2="148.159" gradientUnits="userSpaceOnUse">
            <stop stop-color="#25B777" />
            <stop offset="1" stop-color="#76AA85" stop-opacity="0.7" />
        </linearGradient>
        <linearGradient id="paint7_linear_121_4374" x1="41.5345" y1="128.098" x2="41.5345"
            y2="148.159" gradientUnits="userSpaceOnUse">
            <stop stop-color="#25B777" />
            <stop offset="1" stop-color="#76AA85" stop-opacity="0.7" />
        </linearGradient>
        <linearGradient id="paint8_linear_121_4374" x1="57.1157" y1="128.098" x2="57.1157"
            y2="148.159" gradientUnits="userSpaceOnUse">
            <stop stop-color="#25B777" />
            <stop offset="1" stop-color="#76AA85" stop-opacity="0.7" />
        </linearGradient>
        <linearGradient id="paint9_linear_121_4374" x1="74.1982" y1="128.098" x2="74.1982"
            y2="148.159" gradientUnits="userSpaceOnUse">
            <stop stop-color="#25B777" />
            <stop offset="1" stop-color="#76AA85" stop-opacity="0.7" />
        </linearGradient>
        <linearGradient id="paint10_linear_121_4374" x1="91.8527" y1="133.83" x2="91.8527"
            y2="148.159" gradientUnits="userSpaceOnUse">
            <stop stop-color="#25B777" />
            <stop offset="1" stop-color="#76AA85" stop-opacity="0.7" />
        </linearGradient>
        <linearGradient id="paint11_linear_121_4374" x1="110.007" y1="128.098" x2="110.007"
            y2="148.159" gradientUnits="userSpaceOnUse">
            <stop stop-color="#25B777" />
            <stop offset="1" stop-color="#76AA85" stop-opacity="0.7" />
        </linearGradient>
        <linearGradient id="paint12_linear_121_4374" x1="126.447" y1="128.098" x2="126.447"
            y2="148.159" gradientUnits="userSpaceOnUse">
            <stop stop-color="#25B777" />
            <stop offset="1" stop-color="#76AA85" stop-opacity="0.7" />
        </linearGradient>
        <linearGradient id="paint13_linear_121_4374" x1="142.028" y1="128.098" x2="142.028"
            y2="148.159" gradientUnits="userSpaceOnUse">
            <stop stop-color="#25B777" />
            <stop offset="1" stop-color="#76AA85" stop-opacity="0.7" />
        </linearGradient>
        <linearGradient id="paint14_linear_121_4374" x1="161.326" y1="128.098" x2="161.326"
            y2="148.159" gradientUnits="userSpaceOnUse">
            <stop stop-color="#25B777" />
            <stop offset="1" stop-color="#76AA85" stop-opacity="0.7" />
        </linearGradient>
    </defs>
</svg>
