<svg width="17" height="16" viewBox="0 0 17 16" fill="none" xmlns="http://www.w3.org/2000/svg">
<path d="M5.16666 6.68587C5.48094 6.66667 5.86838 6.66667 6.36666 6.66667H10.6333C11.1316 6.66667 11.5191 6.66667 11.8333 6.68587M5.16666 6.68587C4.77444 6.7098 4.49618 6.76367 4.25868 6.88467C3.88235 7.0764 3.57639 7.38233 3.38464 7.75867C3.16666 8.18653 3.16666 8.74653 3.16666 9.86667V10.8C3.16666 11.9201 3.16666 12.4801 3.38464 12.908C3.57639 13.2843 3.88235 13.5903 4.25868 13.782C4.6865 14 5.24655 14 6.36666 14H10.6333C11.7535 14 12.3135 14 12.7413 13.782C13.1177 13.5903 13.4236 13.2843 13.6153 12.908C13.8333 12.4801 13.8333 11.9201 13.8333 10.8V9.86667C13.8333 8.74653 13.8333 8.18653 13.6153 7.75867C13.4236 7.38233 13.1177 7.0764 12.7413 6.88467C12.5038 6.76367 12.2255 6.7098 11.8333 6.68587M5.16666 6.68587V5.33333C5.16666 3.49239 6.65904 2 8.49999 2C10.3409 2 11.8333 3.49239 11.8333 5.33333V6.68587" stroke="#757575" stroke-width="1.5" stroke-linecap="round" stroke-linejoin="round"/>
</svg>
