<svg width="17" height="16" viewBox="0 0 17 16" fill="none" xmlns="http://www.w3.org/2000/svg">
<path d="M14.5 5.33325L12.1261 6.65207C10.8027 7.38732 10.1409 7.75498 9.44013 7.89912C8.81987 8.02665 8.18013 8.02665 7.55987 7.89912C6.85909 7.75498 6.19735 7.38732 4.87387 6.65207L2.5 5.33325M4.63333 12.6666H12.3667C13.1134 12.6666 13.4868 12.6666 13.772 12.5213C14.0229 12.3935 14.2269 12.1895 14.3547 11.9386C14.5 11.6534 14.5 11.28 14.5 10.5333V5.46658C14.5 4.71985 14.5 4.34648 14.3547 4.06127C14.2269 3.81038 14.0229 3.60641 13.772 3.47858C13.4868 3.33325 13.1134 3.33325 12.3667 3.33325H4.63333C3.8866 3.33325 3.51323 3.33325 3.22801 3.47858C2.97713 3.60641 2.77315 3.81038 2.64533 4.06127C2.5 4.34648 2.5 4.71984 2.5 5.46658V10.5333C2.5 11.28 2.5 11.6534 2.64533 11.9386C2.77315 12.1895 2.97713 12.3935 3.22801 12.5213C3.51323 12.6666 3.88659 12.6666 4.63333 12.6666Z" stroke="#757575" stroke-width="1.5" stroke-linecap="round" stroke-linejoin="round"/>
</svg>
